<?xml version="1.0" standalone="no"?>
<!DOCTYPE svg PUBLIC "-//W3C//DTD SVG 20010904//EN"
 "http://www.w3.org/TR/2001/REC-SVG-20010904/DTD/svg10.dtd">
<svg version="1.0" xmlns="http://www.w3.org/2000/svg"
 width="200.000000pt" height="200.000000pt" viewBox="0 0 200.000000 200.000000"
 preserveAspectRatio="xMidYMid meet">
<metadata>
Created by potrace 1.11, written by Peter Selinger 2001-2013
</metadata>
<g transform="translate(0.000000,200.000000) scale(0.100000,-0.100000)"
fill="#000000" stroke="none">
<path d="M70 1000 l0 -390 100 0 100 0 0 118 c1 109 2 119 25 145 13 15 26 27
28 27 2 0 19 -21 37 -47 19 -27 39 -53 45 -60 5 -6 37 -50 70 -97 l60 -85 123
0 122 -1 0 145 0 145 159 0 159 0 0 -132 c0 -73 1 -139 1 -145 1 -10 28 -13
101 -13 l100 0 0 183 1 182 40 -85 c23 -47 59 -122 80 -167 l39 -83 66 0 65 0
80 165 c44 91 81 165 82 165 1 0 2 -80 2 -178 l0 -177 98 -3 c95 -3 97 -2 98
20 0 13 1 188 2 390 l2 368 -101 0 -101 0 -41 -87 c-22 -49 -59 -128 -82 -178
-22 -49 -55 -121 -73 -158 l-32 -69 -111 244 -110 243 -99 3 c-54 1 -101 -1
-104 -7 -3 -5 -5 -73 -4 -150 1 -138 1 -141 -20 -142 -29 -1 -257 -1 -279 0
-16 1 -18 15 -18 151 l0 150 -133 0 -133 0 -80 -87 c-43 -48 -98 -108 -121
-133 l-43 -45 0 133 0 132 -100 0 -100 0 0 -390z m510 38 l-1 -143 -22 30
c-12 16 -38 52 -58 80 l-36 50 56 62 c31 35 57 63 59 63 1 0 2 -64 2 -142z"/>
</g>
</svg>
